<?xml version="1.0" encoding="utf-8"?>
<svg id="master-artboard" viewBox="0 0 435.1729736328125 190.70245361328125" version="1.1" xmlns="http://www.w3.org/2000/svg" x="0px" y="0px" style="enable-background:new 0 0 336 235.2;" width="435.1729736328125px" height="190.70245361328125px" xmlns:xlink="http://www.w3.org/1999/xlink"><rect id="ee-background" x="0" y="0" width="435.1729736328125" height="190.70245361328125" style="fill: white; fill-opacity: 0; pointer-events: none;"/>














<g transform="matrix(1.1740601062774658, 0, 0, 1.1740601062774658, -386.27989959716797, -346.5498962402344)"><metadata id="metadata733643">
    
  </metadata><linearGradient spreadMethod="pad" y2="30%" x2="-10%" y1="120%" x1="30%" id="3d_gradient2-logo-daf2f834-cca1-4e7e-9690-d878321cc904">
    <stop id="stop733618" stop-opacity="1" stop-color="#ffffff" offset="0%"/>
    <stop id="stop733620" stop-opacity="1" stop-color="#000000" offset="100%"/>
  </linearGradient><linearGradient gradientTransform="rotate(-30)" spreadMethod="pad" y2="30%" x2="-10%" y1="120%" x1="30%" id="3d_gradient3-logo-daf2f834-cca1-4e7e-9690-d878321cc904">
    <stop id="stop733623" stop-opacity="1" stop-color="#ffffff" offset="0%"/>
    <stop id="stop733625" stop-opacity="1" stop-color="#cccccc" offset="50%"/>
    <stop id="stop733627" stop-opacity="1" stop-color="#000000" offset="100%"/>
  </linearGradient><g id="logo-group">
    <image id="container" x="272" y="144" width="480" height="480" style="display: none;" transform="translate(0 0)" xlink:href=""/>
    <g id="logo-center" transform="translate(-1.1368683772161603e-13 0)">
      <image id="icon_container" x="0" y="0" style="display: none;" xlink:href=""/>
      <g id="slogan" style="font-style:normal;font-weight:300;font-size:32px;line-height:1;font-family:Maitree;font-variant-ligatures:none;text-align:center;text-anchor:middle" transform="translate(0 0)">
        <path id="path733645" style="font-style:normal;font-weight:300;font-size:32px;line-height:1;font-family:Maitree;font-variant-ligatures:none;text-align:center;text-anchor:middle" d="m 282.11675,0.352 q -4.64,0 -7.296,-2.912 -2.656,-2.912 -2.656,-8.512 0,-5.6 2.656,-8.544 2.688,-2.976 7.296,-2.976 4.64,0 7.296,2.976 2.688,2.944 2.688,8.544 0,5.568 -2.688,8.512 -2.656,2.912 -7.296,2.912 z m 0,-1.376 q 3.84,0 5.92,-2.624 2.08,-2.656 2.08,-7.424 0,-4.8 -2.08,-7.456 -2.08,-2.688 -5.92,-2.688 -3.84,0 -5.92,2.688 -2.08,2.656 -2.08,7.456 0,4.768 2.08,7.424 2.08,2.624 5.92,2.624 z" stroke-width="0" stroke-linejoin="miter" stroke-miterlimit="2" fill="#008000" stroke="#008000" transform="translate(1.7053025658242404e-13 380.968) translate(332.82781250000016 55.903999999999996) scale(0.75) translate(-272.16475 22.592)"/>
        <path id="path733647" style="font-style:normal;font-weight:300;font-size:32px;line-height:1;font-family:Maitree;font-variant-ligatures:none;text-align:center;text-anchor:middle" d="m 295.82925,0 q -0.416,0 -0.416,-0.512 0,-0.672 0.896,-0.672 h 1.184 v -13.248 h -1.664 q -0.416,0 -0.416,-0.512 0,-0.672 0.896,-0.672 h 2.848 v 2.304 h 0.128 q 2.752,-2.624 5.664,-2.624 2.208,0 3.68,1.312 1.504,1.312 1.504,3.584 v 9.824 l 1.664,0.288 q 0.384,0.064 0.544,0.224 0.16,0.128 0.16,0.384 0,0.32 -0.32,0.32 h -5.504 q -0.416,0 -0.416,-0.512 0,-0.672 0.896,-0.672 h 1.184 v -9.728 q 0,-1.664 -1.024,-2.656 -0.992,-1.024 -2.816,-1.024 -1.376,0 -2.752,0.736 -1.376,0.736 -2.464,1.984 v 10.656 l 1.664,0.288 q 0.384,0.064 0.544,0.224 0.16,0.128 0.16,0.384 0,0.32 -0.32,0.32 z" stroke-width="0" stroke-linejoin="miter" stroke-miterlimit="2" fill="#008000" stroke="#008000" transform="translate(1.7053025658242404e-13 380.968) translate(350.26418750000016 60.896) scale(0.75) translate(-295.41325 15.936)"/>
        <path id="path733649" style="font-style:normal;font-weight:300;font-size:32px;line-height:1;font-family:Maitree;font-variant-ligatures:none;text-align:center;text-anchor:middle" d="m 321.59975,0.352 q -1.952,0 -3.52,-0.864 -1.568,-0.864 -2.496,-2.656 -0.896,-1.824 -0.896,-4.512 0,-2.496 0.896,-4.352 0.928,-1.888 2.528,-2.88 1.632,-1.024 3.712,-1.024 2.72,0 4.928,1.632 v -7.232 h -1.632 q -0.416,0 -0.416,-0.512 0,-0.672 0.864,-0.672 h 2.976 v 21.504 l 1.312,0.288 q 0.416,0.096 0.576,0.224 0.16,0.128 0.16,0.384 0,0.32 -0.32,0.32 h -3.392 v -2.368 h -0.128 q -1.824,2.72 -5.152,2.72 z m 0.448,-1.248 q 1.248,0 2.336,-0.576 1.088,-0.608 1.728,-1.632 0.64,-1.056 0.64,-2.336 v -7.424 q -2.048,-1.824 -4.608,-1.824 -1.568,0 -2.848,0.8 -1.248,0.768 -2.016,2.368 -0.736,1.6 -0.736,3.872 0,3.168 1.376,4.96 1.408,1.792 4.128,1.792 z" stroke-width="0" stroke-linejoin="miter" stroke-miterlimit="2" fill="#008000" stroke="#008000" transform="translate(1.7053025658242404e-13 380.968) translate(364.7200625000001 55.808) scale(0.75) translate(-314.68775 22.72)"/>
        <path id="path733651" style="font-style:normal;font-weight:300;font-size:32px;line-height:1;font-family:Maitree;font-variant-ligatures:none;text-align:center;text-anchor:middle" d="m 340.39375,0.352 q -2.24,0 -3.936,-0.992 -1.664,-0.992 -2.56,-2.816 -0.896,-1.824 -0.896,-4.256 0,-3.712 1.888,-5.952 1.888,-2.272 5.28,-2.272 3.072,0 4.8,1.824 1.728,1.792 1.728,4.8 0,0.864 -0.384,1.824 h -11.488 q 0,3.168 1.568,4.896 1.6,1.696 4.064,1.696 2.432,0 4.224,-1.312 0.064,-0.032 0.224,-0.128 0.16,-0.128 0.32,-0.128 0.224,0 0.384,0.192 0.16,0.16 0.16,0.416 0,0.256 -0.224,0.512 -0.224,0.224 -0.672,0.512 -1.888,1.184 -4.48,1.184 z m 4.352,-9.088 q 0.128,-0.448 0.128,-0.896 0,-2.432 -1.312,-3.744 -1.312,-1.312 -3.392,-1.312 -2.24,0 -3.68,1.6 -1.44,1.568 -1.632,4.352 z" stroke-width="0" stroke-linejoin="miter" stroke-miterlimit="2" fill="#008000" stroke="#008000" transform="translate(1.7053025658242404e-13 380.968) translate(378.4555625000001 60.896) scale(0.75) translate(-333.00175 15.936)"/>
        <path id="path733653" style="font-style:normal;font-weight:300;font-size:32px;line-height:1;font-family:Maitree;font-variant-ligatures:none;text-align:center;text-anchor:middle" d="m 365.98225,0.352 q -3.424,0 -5.312,-2.176 -1.888,-2.208 -1.888,-5.984 0,-3.744 1.888,-5.92 1.888,-2.208 5.312,-2.208 3.392,0 5.28,2.208 1.888,2.176 1.888,5.92 0,3.776 -1.888,5.984 -1.888,2.176 -5.28,2.176 z m 0,-1.248 q 2.496,0 3.904,-1.824 1.44,-1.824 1.44,-5.088 0,-3.232 -1.44,-5.056 -1.408,-1.824 -3.904,-1.824 -2.496,0 -3.936,1.824 -1.44,1.824 -1.44,5.056 0,3.264 1.44,5.088 1.44,1.824 3.936,1.824 z" stroke-width="0" stroke-linejoin="miter" stroke-miterlimit="2" fill="#008000" stroke="#008000" transform="translate(1.7053025658242404e-13 380.968) translate(397.79093750000004 60.896) scale(0.75) translate(-358.78225 15.936)"/>
        <path id="path733655" style="font-style:normal;font-weight:300;font-size:32px;line-height:1;font-family:Maitree;font-variant-ligatures:none;text-align:center;text-anchor:middle" d="m 390.97825,0.352 q -1.504,0 -3.136,-0.448 -1.6,-0.448 -2.464,-1.216 v -2.72 q 0,-0.352 0.384,-0.352 0.448,0 0.608,0.8 l 0.256,1.504 q 0.672,0.576 1.888,0.864 1.216,0.288 2.368,0.288 1.76,0 2.912,-0.608 1.184,-0.608 1.184,-1.984 0,-0.96 -0.448,-1.536 -0.416,-0.608 -1.312,-1.056 -0.896,-0.48 -2.784,-1.216 -2.496,-0.992 -3.712,-2.016 -1.184,-1.056 -1.184,-2.688 0,-1.952 1.568,-2.912 1.568,-0.992 3.808,-0.992 1.472,0 2.976,0.576 1.504,0.544 2.272,1.312 v 2.656 q 0,0.128 -0.096,0.224 -0.096,0.096 -0.288,0.096 -0.256,0 -0.416,-0.16 -0.128,-0.192 -0.192,-0.608 l -0.256,-1.568 q -0.608,-0.576 -1.696,-0.896 -1.088,-0.352 -2.176,-0.352 -1.536,0 -2.592,0.608 -1.056,0.576 -1.056,1.856 0,0.864 0.48,1.44 0.512,0.576 1.376,1.024 0.896,0.448 2.816,1.248 2.592,1.056 3.68,2.08 1.088,1.024 1.088,2.816 0,2.016 -1.696,2.976 -1.664,0.96 -4.16,0.96 z" stroke-width="0" stroke-linejoin="miter" stroke-miterlimit="2" fill="#008000" stroke="#008000" transform="translate(1.7053025658242404e-13 380.968) translate(417.73793750000004 60.896) scale(0.75) translate(-385.37825 15.936)"/>
        <path id="path733657" style="font-style:normal;font-weight:300;font-size:32px;line-height:1;font-family:Maitree;font-variant-ligatures:none;text-align:center;text-anchor:middle" d="m 404.64925,0.352 q -2.016,0 -3.456,-1.12 -1.408,-1.152 -1.408,-3.2 0,-2.176 1.536,-3.232 1.536,-1.088 4.096,-1.472 l 4.864,-0.736 v -1.536 q 0,-1.632 -1.024,-2.688 -1.024,-1.056 -2.848,-1.056 -1.024,0 -2.336,0.384 -1.312,0.384 -2.176,0.928 l -0.256,1.472 q -0.128,0.768 -0.64,0.768 -0.384,0 -0.384,-0.352 v -2.656 q 1.248,-0.768 2.88,-1.28 1.664,-0.512 3.168,-0.512 2.336,0 3.872,1.344 1.536,1.312 1.536,3.648 v 9.76 l 1.248,0.256 q 0.416,0.064 0.576,0.224 0.16,0.128 0.16,0.384 0,0.32 -0.288,0.32 h -3.424 v -2.464 h -0.128 q -0.896,1.28 -2.304,2.048 -1.376,0.768 -3.264,0.768 z m 0.544,-1.28 q 1.248,0 2.432,-0.608 1.184,-0.608 1.92,-1.632 0.736,-1.024 0.736,-2.272 v -2.752 l -4.384,0.672 q -2.016,0.32 -3.136,1.12 -1.12,0.8 -1.12,2.304 0,1.568 0.992,2.368 0.992,0.8 2.56,0.8 z" stroke-width="0" stroke-linejoin="miter" stroke-miterlimit="2" fill="#008000" stroke="#008000" transform="translate(1.7053025658242404e-13 380.968) translate(428.54318750000004 60.896) scale(0.75) translate(-399.78525 15.936)"/>
        <path id="path733659" style="font-style:normal;font-weight:300;font-size:32px;line-height:1;font-family:Maitree;font-variant-ligatures:none;text-align:center;text-anchor:middle" d="m 423.99575,0.352 q -1.536,0 -3.296,-0.512 -1.728,-0.512 -3.008,-1.344 v -20.032 h -1.664 q -0.416,0 -0.416,-0.512 0,-0.672 0.896,-0.672 h 2.912 v 9.312 l 0.096,0.032 q 0.96,-1.248 2.336,-1.888 1.376,-0.672 3.008,-0.672 3.008,0 4.8,2.08 1.824,2.08 1.824,6.176 0,4 -2.048,6.016 -2.048,2.016 -5.44,2.016 z m -0.128,-1.248 q 3.008,0 4.384,-1.728 1.376,-1.76 1.376,-5.024 0,-3.68 -1.408,-5.344 -1.408,-1.696 -3.776,-1.696 -1.28,0 -2.432,0.576 -1.152,0.576 -1.856,1.568 -0.672,0.992 -0.672,2.112 v 8.288 q 0.864,0.544 2.08,0.896 1.248,0.352 2.304,0.352 z" stroke-width="0" stroke-linejoin="miter" stroke-miterlimit="2" fill="#008000" stroke="#008000" transform="translate(1.7053025658242404e-13 380.968) translate(440.4130625 55.808) scale(0.75) translate(-415.61175 22.72)"/>
        <path id="path733661" style="font-style:normal;font-weight:300;font-size:32px;line-height:1;font-family:Maitree;font-variant-ligatures:none;text-align:center;text-anchor:middle" d="m 441.48225,0.352 q -3.424,0 -5.312,-2.176 -1.888,-2.208 -1.888,-5.984 0,-3.744 1.888,-5.92 1.888,-2.208 5.312,-2.208 3.392,0 5.28,2.208 1.888,2.176 1.888,5.92 0,3.776 -1.888,5.984 -1.888,2.176 -5.28,2.176 z m 0,-1.248 q 2.496,0 3.904,-1.824 1.44,-1.824 1.44,-5.088 0,-3.232 -1.44,-5.056 -1.408,-1.824 -3.904,-1.824 -2.496,0 -3.936,1.824 -1.44,1.824 -1.44,5.056 0,3.264 1.44,5.088 1.44,1.824 3.936,1.824 z" stroke-width="0" stroke-linejoin="miter" stroke-miterlimit="2" fill="#008000" stroke="#008000" transform="translate(1.7053025658242404e-13 380.968) translate(454.41593750000004 60.896) scale(0.75) translate(-434.28225 15.936)"/>
        <path id="path733663" style="font-style:normal;font-weight:300;font-size:32px;line-height:1;font-family:Maitree;font-variant-ligatures:none;text-align:center;text-anchor:middle" d="m 451.45425,0 q -0.416,0 -0.416,-0.512 0,-0.672 0.896,-0.672 h 1.184 v -13.248 h -1.664 q -0.416,0 -0.416,-0.512 0,-0.672 0.896,-0.672 h 2.848 v 3.136 h 0.128 q 1.248,-1.44 2.72,-2.432 1.472,-1.024 2.624,-1.024 0.512,0 0.8,0.256 0.32,0.256 0.32,0.704 0,0.512 -0.32,0.896 -3.264,0 -6.144,3.04 v 9.824 l 1.664,0.288 q 0.384,0.064 0.544,0.224 0.16,0.128 0.16,0.384 0,0.32 -0.32,0.32 z" stroke-width="0" stroke-linejoin="miter" stroke-miterlimit="2" fill="#008000" stroke="#008000" transform="translate(1.7053025658242404e-13 380.968) translate(466.98293750000005 60.896) scale(0.75) translate(-451.03825 15.936)"/>
        <path id="path733665" style="font-style:normal;font-weight:300;font-size:32px;line-height:1;font-family:Maitree;font-variant-ligatures:none;text-align:center;text-anchor:middle" d="m 477.71325,-18.56 2.592,-4.288 1.504,0.96 -2.976,4.032 z m 2.368,18.912 q -2.24,0 -3.936,-0.992 -1.664,-0.992 -2.56,-2.816 -0.896,-1.824 -0.896,-4.256 0,-3.712 1.888,-5.952 1.888,-2.272 5.28,-2.272 3.072,0 4.8,1.824 1.728,1.792 1.728,4.8 0,0.864 -0.384,1.824 h -11.488 q 0,3.168 1.568,4.896 1.6,1.696 4.064,1.696 2.432,0 4.224,-1.312 0.064,-0.032 0.224,-0.128 0.16,-0.128 0.32,-0.128 0.224,0 0.384,0.192 0.16,0.16 0.16,0.416 0,0.256 -0.224,0.512 -0.224,0.224 -0.672,0.512 -1.888,1.184 -4.48,1.184 z m 4.352,-9.088 q 0.128,-0.448 0.128,-0.896 0,-2.432 -1.312,-3.744 -1.312,-1.312 -3.392,-1.312 -2.24,0 -3.68,1.6 -1.44,1.568 -1.632,4.352 z" stroke-width="0" stroke-linejoin="miter" stroke-miterlimit="2" fill="#008000" stroke="#008000" transform="translate(1.7053025658242404e-13 380.968) translate(483.22118750000004 55.712) scale(0.75) translate(-472.68925 22.848)"/>
        <path id="path733667" style="font-style:normal;font-weight:300;font-size:32px;line-height:1;font-family:Maitree;font-variant-ligatures:none;text-align:center;text-anchor:middle" d="m 505.22175,0.352 q -2.208,0 -3.68,-1.312 -1.472,-1.312 -1.472,-3.648 v -9.824 h -1.664 q -0.416,0 -0.416,-0.512 0,-0.672 0.896,-0.672 h 2.976 v 10.88 q 0,1.696 0.992,2.72 1.024,1.024 2.848,1.024 1.376,0 2.72,-0.736 1.376,-0.768 2.464,-2.048 v -10.656 h -1.664 q -0.416,0 -0.416,-0.512 0,-0.672 0.896,-0.672 h 2.976 v 14.4 l 1.28,0.288 q 0.416,0.096 0.576,0.224 0.192,0.128 0.192,0.384 0,0.32 -0.32,0.32 h -3.424 v -2.272 h -0.096 q -2.752,2.624 -5.664,2.624 z" stroke-width="0" stroke-linejoin="miter" stroke-miterlimit="2" fill="#008000" stroke="#008000" transform="translate(1.7053025658242404e-13 380.968) translate(502.1965625 61.135999999999996) scale(0.75) translate(-497.98975 15.616)"/>
        <path id="path733669" style="font-style:normal;font-weight:300;font-size:32px;line-height:1;font-family:Maitree;font-variant-ligatures:none;text-align:center;text-anchor:middle" d="m 517.76675,0 q -0.416,0 -0.416,-0.512 0,-0.672 0.896,-0.672 h 1.184 v -13.248 h -1.664 q -0.416,0 -0.416,-0.512 0,-0.672 0.896,-0.672 h 2.848 v 2.272 h 0.128 q 2.656,-2.592 5.312,-2.592 1.44,0 2.592,0.704 1.152,0.704 1.632,2.048 1.312,-1.248 2.624,-1.984 1.344,-0.768 2.944,-0.768 1.984,0 3.296,1.248 1.344,1.216 1.344,3.552 v 9.952 l 1.568,0.256 q 0.384,0.064 0.512,0.224 0.16,0.128 0.16,0.384 0,0.32 -0.288,0.32 h -5.472 q -0.416,0 -0.416,-0.512 0,-0.672 0.896,-0.672 h 1.248 v -9.856 q 0,-1.728 -0.928,-2.624 -0.896,-0.928 -2.368,-0.928 -1.248,0 -2.496,0.704 -1.216,0.704 -2.304,1.856 v 10.848 l 1.664,0.256 q 0.672,0.096 0.672,0.608 0,0.32 -0.288,0.32 h -5.472 q -0.416,0 -0.416,-0.512 0,-0.672 0.896,-0.672 h 1.152 v -9.856 q 0,-1.728 -0.896,-2.624 -0.896,-0.928 -2.336,-0.928 -1.28,0 -2.528,0.704 -1.216,0.704 -2.304,1.888 v 10.816 l 1.664,0.256 q 0.672,0.096 0.672,0.608 0,0.32 -0.288,0.32 z" stroke-width="0" stroke-linejoin="miter" stroke-miterlimit="2" fill="#008000" stroke="#008000" transform="translate(1.7053025658242404e-13 380.968) translate(516.7173124999999 60.896) scale(0.75) translate(-517.35075 15.936)"/>
        <path id="path733671" style="font-style:normal;font-weight:300;font-size:32px;line-height:1;font-family:Maitree;font-variant-ligatures:none;text-align:center;text-anchor:middle" d="m 550.46175,0.352 q -2.016,0 -3.456,-1.12 -1.408,-1.152 -1.408,-3.2 0,-2.176 1.536,-3.232 1.536,-1.088 4.096,-1.472 l 4.864,-0.736 v -1.536 q 0,-1.632 -1.024,-2.688 -1.024,-1.056 -2.848,-1.056 -1.024,0 -2.336,0.384 -1.312,0.384 -2.176,0.928 l -0.256,1.472 q -0.128,0.768 -0.64,0.768 -0.384,0 -0.384,-0.352 v -2.656 q 1.248,-0.768 2.88,-1.28 1.664,-0.512 3.168,-0.512 2.336,0 3.872,1.344 1.536,1.312 1.536,3.648 v 9.76 l 1.248,0.256 q 0.416,0.064 0.576,0.224 0.16,0.128 0.16,0.384 0,0.32 -0.288,0.32 h -3.424 v -2.464 h -0.128 q -0.896,1.28 -2.304,2.048 -1.376,0.768 -3.264,0.768 z m 0.544,-1.28 q 1.248,0 2.432,-0.608 1.184,-0.608 1.92,-1.632 0.736,-1.024 0.736,-2.272 v -2.752 l -4.384,0.672 q -2.016,0.32 -3.136,1.12 -1.12,0.8 -1.12,2.304 0,1.568 0.992,2.368 0.992,0.8 2.56,0.8 z" stroke-width="0" stroke-linejoin="miter" stroke-miterlimit="2" fill="#008000" stroke="#008000" transform="translate(1.7053025658242404e-13 380.968) translate(537.9025625 60.896) scale(0.75) translate(-545.59775 15.936)"/>
        <path id="path733673" style="font-style:normal;font-weight:300;font-size:32px;line-height:1;font-family:Maitree;font-variant-ligatures:none;text-align:center;text-anchor:middle" d="m 578.60725,0.352 q -3.424,0 -5.312,-2.176 -1.888,-2.208 -1.888,-5.984 0,-3.744 1.888,-5.92 1.888,-2.208 5.312,-2.208 3.392,0 5.28,2.208 1.888,2.176 1.888,5.92 0,3.776 -1.888,5.984 -1.888,2.176 -5.28,2.176 z m 0,-1.248 q 2.496,0 3.904,-1.824 1.44,-1.824 1.44,-5.088 0,-3.232 -1.44,-5.056 -1.408,-1.824 -3.904,-1.824 -2.496,0 -3.936,1.824 -1.44,1.824 -1.44,5.056 0,3.264 1.44,5.088 1.44,1.824 3.936,1.824 z" stroke-width="0" stroke-linejoin="miter" stroke-miterlimit="2" fill="#008000" stroke="#008000" transform="translate(1.7053025658242404e-13 380.968) translate(557.2596874999999 60.896) scale(0.75) translate(-571.40725 15.936)"/>
        <path id="path733675" style="font-style:normal;font-weight:300;font-size:32px;line-height:1;font-family:Maitree;font-variant-ligatures:none;text-align:center;text-anchor:middle" d="m 595.74575,0.352 q -1.536,0 -3.296,-0.512 -1.728,-0.512 -3.008,-1.344 v -20.032 h -1.664 q -0.416,0 -0.416,-0.512 0,-0.672 0.896,-0.672 h 2.912 v 9.312 l 0.096,0.032 q 0.96,-1.248 2.336,-1.888 1.376,-0.672 3.008,-0.672 3.008,0 4.8,2.08 1.824,2.08 1.824,6.176 0,4 -2.048,6.016 -2.048,2.016 -5.44,2.016 z m -0.128,-1.248 q 3.008,0 4.384,-1.728 1.376,-1.76 1.376,-5.024 0,-3.68 -1.408,-5.344 -1.408,-1.696 -3.776,-1.696 -1.28,0 -2.432,0.576 -1.152,0.576 -1.856,1.568 -0.672,0.992 -0.672,2.112 v 8.288 q 0.864,0.544 2.08,0.896 1.248,0.352 2.304,0.352 z" stroke-width="0" stroke-linejoin="miter" stroke-miterlimit="2" fill="#008000" stroke="#008000" transform="translate(1.7053025658242404e-13 380.968) translate(569.2255624999999 55.808) scale(0.75) translate(-587.36175 22.72)"/>
        <path id="path733677" style="font-style:normal;font-weight:300;font-size:32px;line-height:1;font-family:Maitree;font-variant-ligatures:none;text-align:center;text-anchor:middle" d="m 606.32925,0 q -0.416,0 -0.416,-0.512 0,-0.672 0.896,-0.672 h 1.184 v -13.248 h -1.664 q -0.416,0 -0.416,-0.512 0,-0.672 0.896,-0.672 h 2.848 v 3.136 h 0.128 q 1.248,-1.44 2.72,-2.432 1.472,-1.024 2.624,-1.024 0.512,0 0.8,0.256 0.32,0.256 0.32,0.704 0,0.512 -0.32,0.896 -3.264,0 -6.144,3.04 v 9.824 l 1.664,0.288 q 0.384,0.064 0.544,0.224 0.16,0.128 0.16,0.384 0,0.32 -0.32,0.32 z" stroke-width="0" stroke-linejoin="miter" stroke-miterlimit="2" fill="#008000" stroke="#008000" transform="translate(1.7053025658242404e-13 380.968) translate(583.1391874999999 60.896) scale(0.75) translate(-605.91325 15.936)"/>
        <path id="path733679" style="font-style:normal;font-weight:300;font-size:32px;line-height:1;font-family:Maitree;font-variant-ligatures:none;text-align:center;text-anchor:middle" d="m 622.83675,0.352 q -2.016,0 -3.456,-1.12 -1.408,-1.152 -1.408,-3.2 0,-2.176 1.536,-3.232 1.536,-1.088 4.096,-1.472 l 4.864,-0.736 v -1.536 q 0,-1.632 -1.024,-2.688 -1.024,-1.056 -2.848,-1.056 -1.024,0 -2.336,0.384 -1.312,0.384 -2.176,0.928 l -0.256,1.472 q -0.128,0.768 -0.64,0.768 -0.384,0 -0.384,-0.352 v -2.656 q 1.248,-0.768 2.88,-1.28 1.664,-0.512 3.168,-0.512 2.336,0 3.872,1.344 1.536,1.312 1.536,3.648 v 9.76 l 1.248,0.256 q 0.416,0.064 0.576,0.224 0.16,0.128 0.16,0.384 0,0.32 -0.288,0.32 h -3.424 v -2.464 h -0.128 q -0.896,1.28 -2.304,2.048 -1.376,0.768 -3.264,0.768 z m 0.544,-1.28 q 1.248,0 2.432,-0.608 1.184,-0.608 1.92,-1.632 0.736,-1.024 0.736,-2.272 v -2.752 l -4.384,0.672 q -2.016,0.32 -3.136,1.12 -1.12,0.8 -1.12,2.304 0,1.568 0.992,2.368 0.992,0.8 2.56,0.8 z" stroke-width="0" stroke-linejoin="miter" stroke-miterlimit="2" fill="#008000" stroke="#008000" transform="translate(1.7053025658242404e-13 380.968) translate(592.1838124999999 60.896) scale(0.75) translate(-617.97275 15.936)"/>
        <path id="path733681" style="font-style:normal;font-weight:300;font-size:32px;line-height:1;font-family:Maitree;font-variant-ligatures:none;text-align:center;text-anchor:middle" d="m 650.66225,0.352 q -1.952,0 -3.52,-0.864 -1.568,-0.864 -2.496,-2.656 -0.896,-1.824 -0.896,-4.512 0,-2.496 0.896,-4.352 0.928,-1.888 2.528,-2.88 1.632,-1.024 3.712,-1.024 2.72,0 4.928,1.632 v -7.232 h -1.632 q -0.416,0 -0.416,-0.512 0,-0.672 0.864,-0.672 h 2.976 v 21.504 l 1.312,0.288 q 0.416,0.096 0.576,0.224 0.16,0.128 0.16,0.384 0,0.32 -0.32,0.32 h -3.392 v -2.368 h -0.128 q -1.824,2.72 -5.152,2.72 z m 0.448,-1.248 q 1.248,0 2.336,-0.576 1.088,-0.608 1.728,-1.632 0.64,-1.056 0.64,-2.336 v -7.424 q -2.048,-1.824 -4.608,-1.824 -1.568,0 -2.848,0.8 -1.248,0.768 -2.016,2.368 -0.736,1.6 -0.736,3.872 0,3.168 1.376,4.96 1.408,1.792 4.128,1.792 z" stroke-width="0" stroke-linejoin="miter" stroke-miterlimit="2" fill="#008000" stroke="#008000" transform="translate(1.7053025658242404e-13 380.968) translate(611.5169374999998 55.808) scale(0.75) translate(-643.75025 22.72)"/>
        <path id="path733683" style="font-style:normal;font-weight:300;font-size:32px;line-height:1;font-family:Maitree;font-variant-ligatures:none;text-align:center;text-anchor:middle" d="m 669.45625,0.352 q -2.24,0 -3.936,-0.992 -1.664,-0.992 -2.56,-2.816 -0.896,-1.824 -0.896,-4.256 0,-3.712 1.888,-5.952 1.888,-2.272 5.28,-2.272 3.072,0 4.8,1.824 1.728,1.792 1.728,4.8 0,0.864 -0.384,1.824 h -11.488 q 0,3.168 1.568,4.896 1.6,1.696 4.064,1.696 2.432,0 4.224,-1.312 0.064,-0.032 0.224,-0.128 0.16,-0.128 0.32,-0.128 0.224,0 0.384,0.192 0.16,0.16 0.16,0.416 0,0.256 -0.224,0.512 -0.224,0.224 -0.672,0.512 -1.888,1.184 -4.48,1.184 z m 4.352,-9.088 q 0.128,-0.448 0.128,-0.896 0,-2.432 -1.312,-3.744 -1.312,-1.312 -3.392,-1.312 -2.24,0 -3.68,1.6 -1.44,1.568 -1.632,4.352 z" stroke-width="0" stroke-linejoin="miter" stroke-miterlimit="2" fill="#008000" stroke="#008000" transform="translate(1.7053025658242404e-13 380.968) translate(625.2524374999998 60.896) scale(0.75) translate(-662.06425 15.936)"/>
        <path id="path733685" style="font-style:normal;font-weight:300;font-size:32px;line-height:1;font-family:Maitree;font-variant-ligatures:none;text-align:center;text-anchor:middle" d="m 692.83675,0.352 q -2.016,0 -3.456,-1.12 -1.408,-1.152 -1.408,-3.2 0,-2.176 1.536,-3.232 1.536,-1.088 4.096,-1.472 l 4.864,-0.736 v -1.536 q 0,-1.632 -1.024,-2.688 -1.024,-1.056 -2.848,-1.056 -1.024,0 -2.336,0.384 -1.312,0.384 -2.176,0.928 l -0.256,1.472 q -0.128,0.768 -0.64,0.768 -0.384,0 -0.384,-0.352 v -2.656 q 1.248,-0.768 2.88,-1.28 1.664,-0.512 3.168,-0.512 2.336,0 3.872,1.344 1.536,1.312 1.536,3.648 v 9.76 l 1.248,0.256 q 0.416,0.064 0.576,0.224 0.16,0.128 0.16,0.384 0,0.32 -0.288,0.32 h -3.424 v -2.464 h -0.128 q -0.896,1.28 -2.304,2.048 -1.376,0.768 -3.264,0.768 z m 0.544,-1.28 q 1.248,0 2.432,-0.608 1.184,-0.608 1.92,-1.632 0.736,-1.024 0.736,-2.272 v -2.752 l -4.384,0.672 q -2.016,0.32 -3.136,1.12 -1.12,0.8 -1.12,2.304 0,1.568 0.992,2.368 0.992,0.8 2.56,0.8 z" stroke-width="0" stroke-linejoin="miter" stroke-miterlimit="2" fill="#008000" stroke="#008000" transform="translate(1.7053025658242404e-13 380.968) translate(644.6838124999998 60.896) scale(0.75) translate(-687.97275 15.936)"/>
        <path id="path733687" style="font-style:normal;font-weight:300;font-size:32px;line-height:1;font-family:Maitree;font-variant-ligatures:none;text-align:center;text-anchor:middle" d="m 705.07925,0 q -0.416,0 -0.416,-0.512 0,-0.672 0.896,-0.672 h 1.184 v -13.248 h -1.664 q -0.416,0 -0.416,-0.512 0,-0.672 0.896,-0.672 h 2.848 v 3.136 h 0.128 q 1.248,-1.44 2.72,-2.432 1.472,-1.024 2.624,-1.024 0.512,0 0.8,0.256 0.32,0.256 0.32,0.704 0,0.512 -0.32,0.896 -3.264,0 -6.144,3.04 v 9.824 l 1.664,0.288 q 0.384,0.064 0.544,0.224 0.16,0.128 0.16,0.384 0,0.32 -0.32,0.32 z" stroke-width="0" stroke-linejoin="miter" stroke-miterlimit="2" fill="#008000" stroke="#008000" transform="translate(1.7053025658242404e-13 380.968) translate(657.2016874999997 60.896) scale(0.75) translate(-704.66325 15.936)"/>
        <path id="path733689" style="font-style:normal;font-weight:300;font-size:32px;line-height:1;font-family:Maitree;font-variant-ligatures:none;text-align:center;text-anchor:middle" d="m 722.77075,0.352 q -1.6,0 -2.656,-0.96 -1.056,-0.992 -1.056,-2.784 v -10.88 h -2.176 q -0.16,0 -0.288,-0.16 -0.128,-0.16 -0.128,-0.384 0,-0.352 0.224,-0.544 0.256,-0.224 0.672,-0.224 h 1.696 l 0.352,-3.296 h 1.44 v 3.296 h 4.864 q 0.32,0 0.32,0.352 0,0.288 -0.288,0.416 -0.256,0.128 -0.832,0.192 l -4.064,0.352 v 11.008 q 0,1.152 0.576,1.76 0.608,0.576 1.632,0.576 0.704,0 1.248,-0.192 0.544,-0.224 1.024,-0.672 0.288,-0.288 0.512,-0.288 0.224,0 0.352,0.16 0.16,0.128 0.16,0.416 0,0.224 -0.224,0.512 -0.224,0.288 -0.608,0.544 -1.248,0.8 -2.752,0.8 z" stroke-width="0" stroke-linejoin="miter" stroke-miterlimit="2" fill="#008000" stroke="#008000" transform="translate(1.7053025658242404e-13 380.968) translate(666.0543124999997 58.688) scale(0.75) translate(-716.46675 18.88)"/>
        <path id="path733691" style="font-style:normal;font-weight:300;font-size:32px;line-height:1;font-family:Maitree;font-variant-ligatures:none;text-align:center;text-anchor:middle" d="m 736.14375,0.352 q -2.24,0 -3.936,-0.992 -1.664,-0.992 -2.56,-2.816 -0.896,-1.824 -0.896,-4.256 0,-3.712 1.888,-5.952 1.888,-2.272 5.28,-2.272 3.072,0 4.8,1.824 1.728,1.792 1.728,4.8 0,0.864 -0.384,1.824 h -11.488 q 0,3.168 1.568,4.896 1.6,1.696 4.064,1.696 2.432,0 4.224,-1.312 0.064,-0.032 0.224,-0.128 0.16,-0.128 0.32,-0.128 0.224,0 0.384,0.192 0.16,0.16 0.16,0.416 0,0.256 -0.224,0.512 -0.224,0.224 -0.672,0.512 -1.888,1.184 -4.48,1.184 z m 4.352,-9.088 q 0.128,-0.448 0.128,-0.896 0,-2.432 -1.312,-3.744 -1.312,-1.312 -3.392,-1.312 -2.24,0 -3.68,1.6 -1.44,1.568 -1.632,4.352 z" stroke-width="0" stroke-linejoin="miter" stroke-miterlimit="2" fill="#008000" stroke="#008000" transform="translate(1.7053025658242404e-13 380.968) translate(675.2680624999997 60.896) scale(0.75) translate(-728.75175 15.936)"/>
        <path id="path733693" style="font-style:normal;font-weight:300;font-size:32px;line-height:1;font-family:Maitree;font-variant-ligatures:none;text-align:center;text-anchor:middle" d="m 747.52525,-22.592 h 2.24 l -0.48,17.472 h -1.248 z m 1.12,22.944 q -0.544,0 -0.928,-0.352 -0.384,-0.384 -0.384,-0.96 0,-0.576 0.384,-0.928 0.384,-0.384 0.928,-0.384 0.544,0 0.928,0.384 0.384,0.352 0.384,0.928 0,0.576 -0.384,0.96 -0.384,0.352 -0.928,0.352 z" stroke-width="0" stroke-linejoin="miter" stroke-miterlimit="2" fill="#008000" stroke="#008000" transform="translate(1.7053025658242404e-13 380.968) translate(689.2041874999998 55.903999999999996) scale(0.75) translate(-747.33325 22.592)"/>
      </g>
      <g id="title" style="font-style:normal;font-weight:700;font-size:72px;line-height:1;font-family:'Dancing Script';font-variant-ligatures:none;text-align:center;text-anchor:middle" transform="translate(0 0)">
        <path id="path733696" style="font-style:normal;font-weight:700;font-size:72px;line-height:1;font-family:'Dancing Script';font-variant-ligatures:none;text-align:center;text-anchor:middle" d="m 437.714,6.264 q -2.952,0 -6.696,-1.296 -3.672,-1.296 -9.432,-3.744 l -3.456,-1.512 q -3.888,4.104 -8.352,4.104 -2.376,0 -4.248,-1.08 -1.872,-1.08 -2.88,-2.664 -1.008,-1.512 -1.008,-2.952 0,-1.584 1.44,-2.592 1.368,-1.008 4.464,-1.008 3.528,0 9.072,1.44 1.656,-3.024 3.168,-7.2 1.584,-4.176 3.6,-10.584 l 1.8,-5.544 q -3.528,-1.152 -5.544,-3.312 -1.944,-2.16 -1.944,-4.536 0,-2.304 1.656,-4.248 1.728,-1.944 4.392,-1.944 -1.44,1.872 -1.44,4.896 0,2.232 1.008,3.96 1.08,1.656 2.736,2.664 3.24,-9.792 6.912,-15.336 3.672,-5.616 9,-5.616 3.024,0 5.472,1.872 2.52,1.8 2.52,5.904 0,3.672 -2.088,7.56 -2.016,3.816 -6.336,6.48 -4.32,2.664 -10.728,2.664 -2.592,7.848 -4.896,13.608 -2.304,5.76 -4.968,9.864 6.48,1.944 11.016,3.096 4.608,1.08 8.064,1.08 1.656,0 3.096,-0.36 1.512,-0.36 3.24,-1.224 -1.44,3.96 -3.528,5.76 -2.088,1.8 -5.112,1.8 z m -6.12,-36 q 3.888,-0.288 6.912,-3.024 3.024,-2.808 4.68,-6.48 1.728,-3.744 1.728,-6.552 0,-3.24 -2.376,-3.24 -2.88,0 -5.328,4.896 -2.448,4.824 -5.616,14.4 z M 409.058,1.152 q 1.656,0 2.736,-0.72 1.152,-0.648 2.592,-2.16 -5.112,-1.872 -7.56,-1.872 -1.296,0 -1.944,0.504 -0.648,0.432 -0.648,1.224 0,1.224 1.44,2.088 1.44,0.936 3.384,0.936 z" stroke-width="0" stroke-linejoin="miter" stroke-miterlimit="2" fill="#008000" stroke="#008000" transform="translate(0 286.21119999999996) translate(355.2361642 27.708799999999997) scale(1.43) translate(-401.642 51.84)"/>
        <path id="path733698" style="font-style:normal;font-weight:700;font-size:72px;line-height:1;font-family:'Dancing Script';font-variant-ligatures:none;text-align:center;text-anchor:middle" d="m 454.157,3.384 q -2.52,0 -4.176,-1.656 -1.728,-1.656 -1.728,-4.68 0,-4.176 3.024,-9.36 3.096,-5.184 7.848,-8.784 4.752,-3.6 9.504,-3.6 3.168,0 5.256,1.656 2.16,1.584 2.16,4.104 0,3.312 -4.104,3.456 2.592,0.792 2.592,2.16 0,0.504 -0.504,1.512 -0.504,1.008 -1.152,2.088 -1.152,1.872 -1.8,3.312 -0.648,1.368 -0.648,2.592 0,1.08 0.504,1.872 0.576,0.72 1.656,0.72 2.016,0 5.112,-2.808 3.168,-2.808 6.12,-8.424 l 1.368,1.368 q -2.664,5.976 -6.624,9.648 -3.96,3.6 -7.992,3.6 -2.88,0 -4.464,-1.944 -1.512,-1.872 -1.512,-4.32 -3.24,3.888 -5.544,5.688 -2.304,1.8 -4.896,1.8 z m 1.512,-3.672 q 2.52,0 5.832,-3.6 3.384,-3.672 7.632,-9.504 l 1.44,-1.944 q 0.216,-0.36 0.576,-0.36 l 0.288,0.072 q 0.36,-1.152 0.36,-2.664 0,-3.744 -3.024,-3.744 -3.168,0 -6.624,3.384 -3.456,3.384 -5.832,8.064 -2.304,4.68 -2.304,7.992 0,1.224 0.36,1.8 0.432,0.504 1.296,0.504 z" stroke-width="0" stroke-linejoin="miter" stroke-miterlimit="2" fill="#008000" stroke="#008000" transform="translate(0 286.21119999999996) translate(421.8898942 66.52472) scale(1.43) translate(-448.253 24.696)"/>
        <path id="path733700" style="font-style:normal;font-weight:700;font-size:72px;line-height:1;font-family:'Dancing Script';font-variant-ligatures:none;text-align:center;text-anchor:middle" d="m 490.47087,6.264 q -2.232,0 -4.104,-1.224 -1.872,-1.152 -1.872,-2.88 0,-1.224 0.93601,-4.032 5.54399,-16.992 8.92799,-26.496 3.38401,-9.504 8.28,-20.376 -3.67199,0.864 -7.56,2.88 -1.728,0.864 -2.08799,0.864 -0.64801,0 -1.72801,-1.008 -1.00799,-1.08 -1.00799,-1.8 9.64799,-4.032 16.91999,-4.032 4.752,0 9.36001,1.656 4.67999,1.656 7.70399,4.896 3.024,3.168 3.024,7.56 0,6.912 -5.54399,10.656 -5.544,3.744 -12.168,5.04 -6.55201,1.224 -11.08801,1.224 h -0.432 l -4.032,14.472 q -1.512,5.76 -3.528,12.6 z m 8.208,-29.304 q 5.76,-0.36 10.87201,-2.232 5.18399,-1.872 8.42399,-5.328 3.312,-3.456 3.312,-8.28 0,-4.968 -3.816,-7.632 -3.816,-2.664 -9.28799,-2.808 -4.32001,8.352 -9.50401,26.28 z" stroke-width="0" stroke-linejoin="miter" stroke-miterlimit="2" fill="#bd1f37" stroke="#bd1f37" transform="translate(0 286.21119999999996) translate(473.7157683000001 27.708799999999997) scale(1.43) translate(-484.49487 51.84)"/>
        <path id="path733702" style="font-style:normal;font-weight:700;font-size:72px;line-height:1;font-family:'Dancing Script';font-variant-ligatures:none;text-align:center;text-anchor:middle" d="m 534.97475,-30.312 q -1.512,0 -2.592,-0.72 -1.008,-0.72 -1.008,-2.088 0,-1.656 1.8,-2.88 1.872,-1.296 3.96,-1.296 3.096,0 3.096,2.664 0,1.512 -1.656,2.952 -1.656,1.368 -3.6,1.368 z m -8.496,32.472 q -3.024,0 -4.68,-1.8 -1.656,-1.8 -1.656,-4.608 0,-2.88 1.584,-7.776 1.656,-4.968 4.104,-8.712 2.52,-3.744 5.04,-3.744 0.936,0 1.512,0.576 0.648,0.504 0.648,1.512 0,0.648 -0.576,1.8 -0.576,1.08 -1.872,3.168 -2.304,3.816 -3.672,6.768 -1.296,2.88 -1.296,5.472 0,2.232 0.792,3.024 0.792,0.792 2.448,0.792 5.688,0 11.304,-11.016 l 1.08,1.152 q -2.52,6.336 -6.408,9.864 -3.888,3.528 -8.352,3.528 z" stroke-width="0" stroke-linejoin="miter" stroke-miterlimit="2" fill="#bd1f37" stroke="#bd1f37" transform="translate(0 286.21119999999996) translate(524.6922367000001 48.50672000000001) scale(1.43) translate(-520.14275 37.296)"/>
        <path id="path733704" style="font-style:normal;font-weight:700;font-size:72px;line-height:1;font-family:'Dancing Script';font-variant-ligatures:none;text-align:center;text-anchor:middle" d="m 538.87288,20.16 q -5.472,0 -5.472,-4.176 0,-2.304 1.51199,-4.248 1.51201,-1.944 3.74401,-3.528 2.30399,-1.584 6.552,-4.032 3.74399,-2.16 6.192,-3.744 -0.144,-2.376 -1.51201,-4.464 -1.36799,-2.088 -4.53599,-4.392 2.664,-0.72 4.60799,-2.376 2.016,-1.656 3.024,-3.744 1.08001,-2.088 1.08001,-3.96 0,-1.44 -0.72001,-2.376 -0.648,-1.008 -2.23199,-1.008 -2.952,0 -5.472,3.384 -2.44801,3.384 -5.40001,9.648 l -1.36799,-1.152 q 2.73599,-7.488 5.68799,-11.448 3.024,-3.96 7.632,-3.96 3.096,0 5.11201,1.728 2.01599,1.656 2.01599,4.752 0,3.312 -2.30399,6.336 -2.304,3.024 -5.832,4.824 3.096,2.448 4.67999,5.904 5.832,-4.464 7.992,-10.08 l 0.936,1.152 q -1.08,3.168 -3.24,5.904 -2.088,2.736 -4.968,4.896 0.28801,1.296 0.28801,2.376 0,4.176 -2.52,8.28 -2.52001,4.176 -6.696,6.84 -4.17601,2.664 -8.784,2.664 z m -1.00801,-2.736 q 1.87201,0 4.82401,-1.8 3.024,-1.8 5.472,-5.04 2.52,-3.24 3.096,-7.272 l -5.04001,2.952 q -5.472,3.24 -7.92,5.112 -2.37599,1.944 -2.37599,4.104 0,1.008 0.576,1.44 0.50399,0.504 1.36799,0.504 z" stroke-width="0" stroke-linejoin="miter" stroke-miterlimit="2" fill="#bd1f37" stroke="#bd1f37" transform="translate(0 286.21119999999996) translate(543.6513626000002 65.49512000000001) scale(1.43) translate(-533.40088 25.416)"/>
        <path id="path733706" style="font-style:normal;font-weight:700;font-size:72px;line-height:1;font-family:'Dancing Script';font-variant-ligatures:none;text-align:center;text-anchor:middle" d="m 562.6385,20.16 q -5.472,0 -5.472,-4.176 0,-2.304 1.512,-4.248 1.512,-1.944 3.744,-3.528 2.304,-1.584 6.552,-4.032 3.744,-2.16 6.192,-3.744 -0.144,-2.376 -1.512,-4.464 -1.368,-2.088 -4.536,-4.392 2.664,-0.72 4.608,-2.376 2.016,-1.656 3.024,-3.744 1.08,-2.088 1.08,-3.96 0,-1.44 -0.72,-2.376 -0.648,-1.008 -2.232,-1.008 -2.952,0 -5.472,3.384 -2.448,3.384 -5.4,9.648 l -1.368,-1.152 q 2.736,-7.488 5.688,-11.448 3.024,-3.96 7.632,-3.96 3.096,0 5.112,1.728 2.016,1.656 2.016,4.752 0,3.312 -2.304,6.336 -2.304,3.024 -5.832,4.824 3.096,2.448 4.68,5.904 5.832,-4.464 7.992,-10.08 l 0.936,1.152 q -1.08,3.168 -3.24,5.904 -2.088,2.736 -4.968,4.896 0.288,1.296 0.288,2.376 0,4.176 -2.52,8.28 -2.52,4.176 -6.696,6.84 -4.176,2.664 -8.784,2.664 z m -1.008,-2.736 q 1.872,0 4.824,-1.8 3.024,-1.8 5.472,-5.04 2.52,-3.24 3.096,-7.272 l -5.04,2.952 q -5.472,3.24 -7.92,5.112 -2.376,1.944 -2.376,4.104 0,1.008 0.576,1.44 0.504,0.504 1.368,0.504 z" stroke-width="0" stroke-linejoin="miter" stroke-miterlimit="2" fill="#bd1f37" stroke="#bd1f37" transform="translate(0 286.21119999999996) translate(577.6361992000002 65.49512000000001) scale(1.43) translate(-557.1665 25.416)"/>
        <path id="path733708" style="font-style:normal;font-weight:700;font-size:72px;line-height:1;font-family:'Dancing Script';font-variant-ligatures:none;text-align:center;text-anchor:middle" d="m 589.86013,3.384 q -2.52001,0 -4.17601,-1.656 -1.72799,-1.656 -1.72799,-4.68 0,-4.176 3.024,-9.36 3.096,-5.184 7.84799,-8.784 4.752,-3.6 9.50401,-3.6 3.168,0 5.25599,1.656 2.16,1.584 2.16,4.104 0,3.312 -4.10399,3.456 2.592,0.792 2.592,2.16 0,0.504 -0.50401,1.512 -0.504,1.008 -1.152,2.088 -1.15199,1.872 -1.8,3.312 -0.648,1.368 -0.648,2.592 0,1.08 0.504,1.872 0.57601,0.72 1.656,0.72 2.01601,0 5.11201,-2.808 3.168,-2.808 6.12,-8.424 l 1.36799,1.368 q -2.664,5.976 -6.62399,9.648 -3.96,3.6 -7.99201,3.6 -2.88,0 -4.46399,-1.944 -1.51201,-1.872 -1.51201,-4.32 -3.24,3.888 -5.544,5.688 -2.30399,1.8 -4.89599,1.8 z m 1.51199,-3.672 q 2.52,0 5.832,-3.6 3.384,-3.672 7.63201,-9.504 l 1.43999,-1.944 q 0.216,-0.36 0.576,-0.36 l 0.288,0.072 q 0.36001,-1.152 0.36001,-2.664 0,-3.744 -3.024,-3.744 -3.168,0 -6.62401,3.384 -3.456,3.384 -5.832,8.064 -2.30399,4.68 -2.30399,7.992 0,1.224 0.36,1.8 0.43199,0.504 1.29599,0.504 z" stroke-width="0" stroke-linejoin="miter" stroke-miterlimit="2" fill="#bd1f37" stroke="#bd1f37" transform="translate(0 286.21119999999996) translate(615.9453701000001 66.52472) scale(1.43) translate(-583.95613 24.696)"/>
      </g>
      <image id="icon" x="0" y="0" style="display: none;" xlink:href=""/>
    </g>
  </g></g></svg>